<?xml version="1.0" standalone="no"?><!DOCTYPE svg PUBLIC "-//W3C//DTD SVG 1.1//EN" "http://www.w3.org/Graphics/SVG/1.1/DTD/svg11.dtd"><svg t="1705406257237" class="icon" viewBox="0 0 1162 1024" version="1.1" xmlns="http://www.w3.org/2000/svg" p-id="5011" xmlns:xlink="http://www.w3.org/1999/xlink" width="226.953125" height="200"><path d="M885.621622 968.648649a27.675676 27.675676 0 0 1 0 55.351351H276.756757a27.675676 27.675676 0 0 1 0-55.351351h608.864865z m193.729729-968.648649a83.027027 83.027027 0 0 1 83.027027 83.027027v664.216216a83.027027 83.027027 0 0 1-83.027027 83.027027H83.027027a83.027027 83.027027 0 0 1-83.027027-83.027027V83.027027a83.027027 83.027027 0 0 1 83.027027-83.027027z m0 55.351351H83.027027a27.675676 27.675676 0 0 0-27.675676 27.675676v664.216216a27.675676 27.675676 0 0 0 27.675676 27.675676h996.324324a27.675676 27.675676 0 0 0 27.675676-27.675676V83.027027a27.675676 27.675676 0 0 0-27.675676-27.675676z m-596.023351 222.78919L581.189189 376.00173l97.861189-97.861189a27.675676 27.675676 0 0 1 39.133406 39.133405L620.322595 415.135135l97.861189 97.861189a27.675676 27.675676 0 0 1-39.133406 39.133406L581.189189 454.268541l-97.861189 97.861189a27.675676 27.675676 0 0 1-39.133405-39.133406L542.055784 415.135135l-97.861189-97.861189a27.675676 27.675676 0 0 1 39.133405-39.133405z" fill="#ffffff" p-id="5012"></path></svg>