<?xml version="1.0" encoding="utf-8"?>
<svg xmlns="http://www.w3.org/2000/svg" xmlns:xlink="http://www.w3.org/1999/xlink" style="margin: auto; background: none; display: block; shape-rendering: auto;" width="207px" height="207px" viewBox="0 0 100 100" preserveAspectRatio="xMidYMid">
<g transform="rotate(0 50 50)">
  <rect x="48.5" y="24" rx="1.32" ry="1.32" width="3" height="12" fill="#1c4595">
    <animate attributeName="opacity" values="1;0" keyTimes="0;1" dur="0.29069767441860467s" begin="-0.25839793281653745s" repeatCount="indefinite"></animate>
  </rect>
</g><g transform="rotate(40 50 50)">
  <rect x="48.5" y="24" rx="1.32" ry="1.32" width="3" height="12" fill="#e76a24">
    <animate attributeName="opacity" values="1;0" keyTimes="0;1" dur="0.29069767441860467s" begin="-0.22609819121447028s" repeatCount="indefinite"></animate>
  </rect>
</g><g transform="rotate(80 50 50)">
  <rect x="48.5" y="24" rx="1.32" ry="1.32" width="3" height="12" fill="#01080a">
    <animate attributeName="opacity" values="1;0" keyTimes="0;1" dur="0.29069767441860467s" begin="-0.19379844961240308s" repeatCount="indefinite"></animate>
  </rect>
</g><g transform="rotate(120 50 50)">
  <rect x="48.5" y="24" rx="1.32" ry="1.32" width="3" height="12" fill="#e7e5e8">
    <animate attributeName="opacity" values="1;0" keyTimes="0;1" dur="0.29069767441860467s" begin="-0.16149870801033592s" repeatCount="indefinite"></animate>
  </rect>
</g><g transform="rotate(160 50 50)">
  <rect x="48.5" y="24" rx="1.32" ry="1.32" width="3" height="12" fill="#fbbc42">
    <animate attributeName="opacity" values="1;0" keyTimes="0;1" dur="0.29069767441860467s" begin="-0.12919896640826872s" repeatCount="indefinite"></animate>
  </rect>
</g><g transform="rotate(200 50 50)">
  <rect x="48.5" y="24" rx="1.32" ry="1.32" width="3" height="12" fill="#1c4595">
    <animate attributeName="opacity" values="1;0" keyTimes="0;1" dur="0.29069767441860467s" begin="-0.09689922480620154s" repeatCount="indefinite"></animate>
  </rect>
</g><g transform="rotate(240 50 50)">
  <rect x="48.5" y="24" rx="1.32" ry="1.32" width="3" height="12" fill="#e76a24">
    <animate attributeName="opacity" values="1;0" keyTimes="0;1" dur="0.29069767441860467s" begin="-0.06459948320413436s" repeatCount="indefinite"></animate>
  </rect>
</g><g transform="rotate(280 50 50)">
  <rect x="48.5" y="24" rx="1.32" ry="1.32" width="3" height="12" fill="#01080a">
    <animate attributeName="opacity" values="1;0" keyTimes="0;1" dur="0.29069767441860467s" begin="-0.03229974160206718s" repeatCount="indefinite"></animate>
  </rect>
</g><g transform="rotate(320 50 50)">
  <rect x="48.5" y="24" rx="1.32" ry="1.32" width="3" height="12" fill="#e7e5e8">
    <animate attributeName="opacity" values="1;0" keyTimes="0;1" dur="0.29069767441860467s" begin="0s" repeatCount="indefinite"></animate>
  </rect>
</g>
<!-- [ldio] generated by https://loading.io/ --></svg>